<svg width="66" height="66" viewBox="0 0 66 66" fill="none" xmlns="http://www.w3.org/2000/svg">
<rect x="1" y="1" width="64" height="64" rx="32" stroke="white" stroke-width="2"/>
<path d="M46.7143 35.2857H35.2857V46.7143C35.2857 47.3205 35.0449 47.9019 34.6162 48.3305C34.1876 48.7592 33.6062 49 33 49C32.3938 49 31.8124 48.7592 31.3838 48.3305C30.9551 47.9019 30.7143 47.3205 30.7143 46.7143V35.2857H19.2857C18.6795 35.2857 18.0981 35.0449 17.6695 34.6162C17.2408 34.1876 17 33.6062 17 33C17 32.3938 17.2408 31.8124 17.6695 31.3838C18.0981 30.9551 18.6795 30.7143 19.2857 30.7143H30.7143V19.2857C30.7143 18.6795 30.9551 18.0981 31.3838 17.6695C31.8124 17.2408 32.3938 17 33 17C33.6062 17 34.1876 17.2408 34.6162 17.6695C35.0449 18.0981 35.2857 18.6795 35.2857 19.2857V30.7143H46.7143C47.3205 30.7143 47.9019 30.9551 48.3305 31.3838C48.7592 31.8124 49 32.3938 49 33C49 33.6062 48.7592 34.1876 48.3305 34.6162C47.9019 35.0449 47.3205 35.2857 46.7143 35.2857Z" fill="white"/>
</svg>
